<svg xmlns="http://www.w3.org/2000/svg" xmlns:xlink="http://www.w3.org/1999/xlink" width="1080" zoomAndPan="magnify" viewBox="0 0 810 809.999993" height="1080" preserveAspectRatio="xMidYMid meet" version="1.0"><metadata><ContainsAiGeneratedContent>Yes</ContainsAiGeneratedContent></metadata><defs><g/><clipPath id="dfce736eac"><path d="M 405 0 C 181.324219 0 0 181.324219 0 405 C 0 628.675781 181.324219 810 405 810 C 628.675781 810 810 628.675781 810 405 C 810 181.324219 628.675781 0 405 0 Z M 405 0 " clip-rule="nonzero"/></clipPath><clipPath id="0ac0fdc43e"><path d="M 404.25 374.394531 L 809.25 374.394531 L 809.25 810 L 404.25 810 Z M 404.25 374.394531 " clip-rule="nonzero"/></clipPath></defs><g clip-path="url(#dfce736eac)"><rect x="-81" width="972" fill="#8473ab" y="-80.999999" height="971.999992" fill-opacity="1"/></g><g clip-path="url(#0ac0fdc43e)"><path fill="#8473ab" d="M 404.25 374.394531 L 809.25 374.394531 L 809.25 814.199219 L 404.25 814.199219 Z M 404.25 374.394531 " fill-opacity="1" fill-rule="nonzero"/></g><g fill="#ffffff" fill-opacity="1"><g transform="translate(102.999022, 566.519406)"><g><path d="M 57.078125 -49.265625 C 57.078125 -43.003906 58.3125 -36.875 60.78125 -30.875 C 63.257812 -24.882812 66.648438 -19.609375 70.953125 -15.046875 C 75.253906 -10.484375 80.269531 -6.832031 86 -4.09375 C 91.738281 -1.363281 97.734375 0 103.984375 0 L 9.78125 0 C 16.03125 0 22.019531 -1.363281 27.75 -4.09375 C 33.488281 -6.832031 38.507812 -10.484375 42.8125 -15.046875 C 47.113281 -19.609375 50.566406 -24.882812 53.171875 -30.875 C 55.773438 -36.875 57.078125 -43.003906 57.078125 -49.265625 Z M 181.390625 -127.0625 C 186.347656 -127.0625 189.738281 -129.535156 191.5625 -134.484375 L 187.65625 -123.140625 L 144.640625 0 L 76.625 -196.640625 C 74.800781 -201.328125 71.410156 -203.671875 66.453125 -203.671875 C 63.585938 -203.671875 61.113281 -202.628906 59.03125 -200.546875 C 56.945312 -198.460938 55.90625 -195.988281 55.90625 -193.125 L 55.90625 -247.859375 C 55.90625 -254.367188 53.425781 -260.296875 48.46875 -265.640625 C 43.519531 -270.984375 37.789062 -273.65625 31.28125 -273.65625 L 122.75 -273.65625 L 164.578125 -153.640625 L 171.234375 -134.484375 C 171.753906 -132.398438 172.988281 -130.640625 174.9375 -129.203125 C 176.894531 -127.773438 179.046875 -127.0625 181.390625 -127.0625 Z M 324.484375 -273.65625 C 317.960938 -273.65625 312.421875 -270.984375 307.859375 -265.640625 C 303.296875 -260.296875 301.015625 -254.367188 301.015625 -247.859375 L 301.015625 -25.796875 C 301.015625 -19.285156 303.296875 -13.359375 307.859375 -8.015625 C 312.421875 -2.671875 317.960938 0 324.484375 0 L 208.375 0 C 215.144531 0 220.8125 -2.671875 225.375 -8.015625 C 229.9375 -13.359375 232.21875 -19.285156 232.21875 -25.796875 L 232.21875 -195.078125 C 232.21875 -197.941406 231.109375 -200.484375 228.890625 -202.703125 C 226.679688 -204.921875 224.140625 -206.03125 221.265625 -206.03125 C 216.316406 -206.03125 212.929688 -203.550781 211.109375 -198.59375 L 217.75 -218.140625 L 236.515625 -273.65625 Z M 324.484375 -273.65625 "/></g></g></g><g fill="#ffffff" fill-opacity="1"><g transform="translate(437.250006, 566.519406)"><g><path d="M 180.609375 -126.265625 C 186.085938 -120.796875 190.78125 -113.695312 194.6875 -104.96875 C 198.59375 -96.238281 202.175781 -86.984375 205.4375 -77.203125 C 208.695312 -67.429688 212.019531 -57.59375 215.40625 -47.6875 C 218.789062 -37.789062 222.503906 -29.128906 226.546875 -21.703125 C 230.585938 -14.273438 235.28125 -8.410156 240.625 -4.109375 C 245.96875 0.191406 252.414062 1.5625 259.96875 0 C 255.019531 5.207031 248.113281 9.179688 239.25 11.921875 C 230.394531 14.660156 220.753906 16.160156 210.328125 16.421875 C 195.472656 16.421875 183.15625 12.640625 173.375 5.078125 C 163.601562 -2.472656 155.585938 -11.984375 149.328125 -23.453125 C 143.078125 -34.921875 138.0625 -47.300781 134.28125 -60.59375 C 130.507812 -73.882812 127.1875 -86.265625 124.3125 -97.734375 C 121.445312 -109.203125 118.515625 -118.78125 115.515625 -126.46875 C 112.523438 -134.15625 108.679688 -138 103.984375 -138 L 127.84375 -138 C 133.570312 -138 138.976562 -139.757812 144.0625 -143.28125 C 149.144531 -146.800781 153.570312 -151.554688 157.34375 -157.546875 C 161.125 -163.546875 164.125 -170.582031 166.34375 -178.65625 C 168.5625 -186.738281 169.671875 -195.46875 169.671875 -204.84375 C 169.671875 -213.96875 168.5625 -222.695312 166.34375 -231.03125 C 164.125 -239.375 161.125 -246.671875 157.34375 -252.921875 C 153.570312 -259.179688 149.144531 -264.203125 144.0625 -267.984375 C 138.976562 -271.765625 133.570312 -273.65625 127.84375 -273.65625 L 165.359375 -273.65625 C 175.523438 -273.65625 185.039062 -271.894531 193.90625 -268.375 C 202.769531 -264.851562 210.523438 -259.96875 217.171875 -253.71875 C 223.816406 -247.46875 229.09375 -240.171875 233 -231.828125 C 236.90625 -223.484375 238.859375 -214.625 238.859375 -205.25 C 238.859375 -195.863281 236.90625 -187 233 -178.65625 C 229.09375 -170.320312 223.816406 -163.023438 217.171875 -156.765625 C 210.523438 -150.515625 202.769531 -145.628906 193.90625 -142.109375 C 185.039062 -138.585938 175.523438 -136.828125 165.359375 -136.828125 L 159.5 -136.828125 C 161.582031 -136.828125 163.929688 -136.304688 166.546875 -135.265625 C 168.628906 -134.484375 170.90625 -133.375 173.375 -131.9375 C 175.851562 -130.507812 178.265625 -128.617188 180.609375 -126.265625 Z M 102.03125 -25.796875 C 102.03125 -19.285156 104.3125 -13.359375 108.875 -8.015625 C 113.4375 -2.671875 119.101562 0 125.875 0 L 9.78125 0 C 16.289062 0 21.828125 -2.671875 26.390625 -8.015625 C 30.953125 -13.359375 33.234375 -19.285156 33.234375 -25.796875 L 33.234375 -247.859375 C 33.234375 -254.367188 30.953125 -260.296875 26.390625 -265.640625 C 21.828125 -270.984375 16.289062 -273.65625 9.78125 -273.65625 L 102.03125 -273.65625 Z M 102.03125 -25.796875 "/></g></g></g></svg>